{"title":"The.Hunger.Games.Mockingjay.Part1.2014.AB HC.ENG.CAM.NO.LOGO.mp4","uid":11593427,"size":600397901,"categoryP":"video","categoryS":"movies","magnet":"?xt=urn:btih:3ddeeba91e8c13fa3a12faad4121652f51d058ff&amp;dn=The.Hunger.Games.Mockingjay.Part1.2014.AB+HC.ENG.CAM.NO.LOGO.mp4&amp;tr=udp%3A%2F%2Ftracker.openbittorrent.com%3A80&amp;tr=udp%3A%2F%2Fopen.demonii.com%3A1337&amp;tr=udp%3A%2F%2Ftracker.coppersurfer.tk%3A6969&amp;tr=udp%3A%2F%2Fexodus.desync.com%3A6969","seeders":4,"leechers":0,"uploader":"zloitoi","files":1,"time":1417251985,"description":"Screenshoot : \n &lt;a href=&quot;\nhttp://i.imgur.com/oc4o909.jpg?1&quot; rel=&quot;nofollow&quot; target=&quot;_NEW&quot;&gt;\nhttp://i.imgur.com/oc4o909.jpg?1&lt;/a&gt;\n\neneral\nFormat : MPEG-4\nFormat profile : Base Media\nCodec ID : isom\nFile size : 573 MiB\nDuration : 1h 50mn\nOverall bit rate mode : Variable\nOverall bit rate : 726 Kbps\nEncoded date : UTC 2014-11-29 07:42:22\nTagged date : UTC 2014-11-29 07:42:22\nVideo\nID : 1\nFormat : MPEG-4 Visual\nFormat profile : Simple@L1\nFormat settings, BVOP : No\nFormat settings, QPel : No\nFormat settings, GMC : No warppoints\nFormat settings, Matrix : Default (H.263)\nCodec ID : 20\nDuration : 1h 50mn\nBit rate mode : Variable\nBit rate : 598 Kbps\nMaximum bit rate : 1 998 Kbps\nWidth : 688 pixels\nHeight : 384 pixels\nDisplay aspect ratio : 16:9\nOriginal display aspect ratio : 16:9\nFrame rate mode : Constant\nFrame rate : 23.976 fps\nColor space : YUV\nChroma subsampling : 4:2:0\nBit depth : 8 bits\nScan type : Progressive\nCompression mode : Lossy\nBits/(Pixel*Frame) : 0.094\nStream size : 472 MiB (82%)\nWriting library : Lavc53.8.0\nEncoded date : UTC 2014-11-29 07:42:22\nTagged date : UTC 2014-11-29 07:42:34\n\nAudio\nID : 2\nFormat : AAC\nFormat/Info : Advanced Audio Codec\nFormat profile : LC\nCodec ID : 40\nDuration : 1h 50mn\nBit rate mode : Variable\nBit rate : 126 Kbps\nMaximum bit rate : 178 Kbps\nChannel(s) : 2 channels\nChannel positions : Front: L R\nSampling rate : 44.1 KHz\nCompression mode : Lossy\nStream size : 99.1 MiB (17%)\nEncoded date : UTC 2014-11-29 07:42:30\nTagged date : UTC 2014-11-29 07:42:34","torrent":{"xt":"urn:btih:3ddeeba91e8c13fa3a12faad4121652f51d058ff","amp;dn":"The.Hunger.Games.Mockingjay.Part1.2014.AB+HC.ENG.CAM.NO.LOGO.mp4","amp;tr":["udp%3A%2F%2Ftracker.openbittorrent.com%3A80","udp%3A%2F%2Fopen.demonii.com%3A1337","udp%3A%2F%2Ftracker.coppersurfer.tk%3A6969","udp%3A%2F%2Fexodus.desync.com%3A6969"],"infoHash":"3ddeeba91e8c13fa3a12faad4121652f51d058ff","infoHashBuffer":{"type":"Buffer","data":[61,222,235,169,30,140,19,250,58,18,250,173,65,33,101,47,81,208,88,255]},"announce":[],"urlList":[]}}